<?xml version="1.0" encoding="UTF-8" standalone="no"?>
<!-- Created with Inkscape (http://www.inkscape.org/) -->

<svg
   width="305.94724mm"
   height="115.64775mm"
   viewBox="0 0 305.94724 115.64775"
   version="1.1"
   id="svg1"
   xml:space="preserve"
   inkscape:export-filename="..\logo.svg"
   inkscape:export-xdpi="42.760944"
   inkscape:export-ydpi="42.760944"
   inkscape:version="1.3.2 (091e20e, 2023-11-25, custom)"
   sodipodi:docname="drawing.svg"
   xmlns:inkscape="http://www.inkscape.org/namespaces/inkscape"
   xmlns:sodipodi="http://sodipodi.sourceforge.net/DTD/sodipodi-0.dtd"
   xmlns="http://www.w3.org/2000/svg"
   xmlns:svg="http://www.w3.org/2000/svg"><sodipodi:namedview
     id="namedview1"
     pagecolor="#505050"
     bordercolor="#eeeeee"
     borderopacity="1"
     inkscape:showpageshadow="0"
     inkscape:pageopacity="0"
     inkscape:pagecheckerboard="0"
     inkscape:deskcolor="#505050"
     inkscape:document-units="mm"
     inkscape:zoom="0.74029882"
     inkscape:cx="445.09054"
     inkscape:cy="403.21556"
     inkscape:window-width="1920"
     inkscape:window-height="1027"
     inkscape:window-x="2992"
     inkscape:window-y="22"
     inkscape:window-maximized="1"
     inkscape:current-layer="layer1" /><defs
     id="defs1" /><g
     inkscape:label="Layer 1"
     inkscape:groupmode="layer"
     id="layer1"
     transform="translate(35.98446,-62.1388)"><g
       id="g11"
       transform="matrix(1.5651844,1.409298,-1.409298,1.5651844,195.83712,14.047756)"
       style="display:inline"><path
         fill="#efefef"
         d="M 53.15,8.91 H 34.61 c -0.84,0 -1.56,0.52 -1.85,1.26 h -0.01 c -0.09,0.23 -0.14,0.48 -0.14,0.74 v 32.14 a 2,2 0 0 0 2,2 h 18.54 a 2,2 0 0 0 2,-2 V 10.91 c 0,-1.1 -0.9,-2 -2,-2 z m -4.77,18.5 -4.5,4.49 -4.49,-4.49 a 3.124,3.124 0 0 1 0,-4.43 c 0.59,-0.59 1.37,-0.91 2.21,-0.91 0.83,0 1.62,0.73 2.21,1.32 l 0.07,0.07 0.07,-0.07 c 0.59,-0.59 1.38,-1.32 2.21,-1.32 0.84,0 1.62,0.32 2.22,0.91 0.59,0.59 0.91,1.38 0.91,2.21 0,0.84 -0.32,1.62 -0.91,2.22 z"
         opacity="1"
         data-original="#efefef"
         class=""
         id="path1" /><path
         fill="#efefef"
         d="m 34.61,45.05 a 2,2 0 0 1 -2,-2 V 10.91 c 0,-0.26 0.05,-0.51 0.14,-0.74 l -13.73,4.96 a 2.012,2.012 0 0 0 -1.2,2.56 l 2.07,5.74 8.85,24.49 a 2.009,2.009 0 0 0 2.56,1.21 l 6.81,-2.46 4.48,-1.62 z M 27.53,24.03 c 0,0 -2.06,-2.27 -4.58,-2.47 1.7,-1.87 1.66,-4.93 1.66,-4.93 0,0 2.06,2.27 4.57,2.47 -1.69,1.87 -1.65,4.93 -1.65,4.93 z"
         opacity="1"
         data-original="#efefef"
         class=""
         id="path2" /><path
         fill="#cfd4e5"
         d="m 42.59,45.05 h -7.98 a 2,2 0 0 1 -2,-2 V 10.91 c 0,-0.26 0.05,-0.51 0.14,-0.74 l -2.64,0.954 V 43.05 c 0,2.481 2.019,4.5 4.5,4.5 h 1.065 l 2.436,-0.88 z"
         opacity="1"
         data-original="#cfd4e5"
         class=""
         id="path3" /><path
         fill="#efefef"
         d="M 31.3,49.13 C 30.26,49.5 29.12,48.96 28.74,47.92 L 19.89,23.43 9.39,32.6 C 8.73,33.2 8.66,34.23 9.26,34.91 L 26.7,54.54 c 0.6,0.67 1.63,0.74 2.3,0.14 l 9.11,-8.01 z M 18.25,34.85 c -0.27,0.28 -0.77,0.29 -1.16,0.29 h -0.05 v 0.05 c 0,0.39 -0.02,0.89 -0.29,1.16 -0.28,0.28 -0.64,0.43 -1.03,0.43 -0.39,0 -0.76,-0.15 -1.03,-0.43 a 1.42,1.42 0 0 1 -0.43,-1.03 v -2.96 h 2.96 c 0.39,0 0.76,0.15 1.03,0.43 0.28,0.28 0.43,0.64 0.43,1.03 0,0.39 -0.15,0.76 -0.43,1.03 z"
         opacity="1"
         data-original="#efefef"
         class=""
         id="path4" /><path
         fill="#cfd4e5"
         d="m 31.3,49.13 c -1.04,0.37 -2.18,-0.17 -2.56,-1.21 l -8.85,-24.49 -2.018,1.762 8.52,23.586 a 4.528,4.528 0 0 0 4.236,2.969 c 0.515,0 1.023,-0.088 1.521,-0.266 l 0.831,-0.3 5.13,-4.511 z"
         opacity="1"
         data-original="#cfd4e5"
         class=""
         id="path5" /><path
         fill="#ff5b7d"
         d="m 49.29,25.19 c 0,0.84 -0.32,1.62 -0.91,2.22 l -4.5,4.49 -4.49,-4.49 a 3.124,3.124 0 0 1 0,-4.43 c 0.59,-0.59 1.37,-0.91 2.21,-0.91 0.83,0 1.62,0.73 2.21,1.32 l 0.07,0.07 0.07,-0.07 c 0.59,-0.59 1.38,-1.32 2.21,-1.32 0.84,0 1.62,0.32 2.22,0.91 0.59,0.59 0.91,1.38 0.91,2.21 z"
         opacity="1"
         data-original="#ff5b7d"
         class=""
         id="path6" /><path
         fill="#646375"
         d="m 18.68,33.82 c 0,0.39 -0.15,0.76 -0.43,1.03 -0.27,0.28 -0.77,0.29 -1.16,0.29 h -0.05 v 0.05 c 0,0.39 -0.02,0.89 -0.29,1.16 -0.28,0.28 -0.64,0.43 -1.03,0.43 -0.39,0 -0.76,-0.15 -1.03,-0.43 a 1.42,1.42 0 0 1 -0.43,-1.03 v -2.96 h 2.96 c 0.39,0 0.76,0.15 1.03,0.43 0.28,0.28 0.43,0.64 0.43,1.03 z"
         opacity="1"
         data-original="#646375"
         id="path7" /><path
         fill="#ffc05e"
         d="m 27.53,24.03 c 0,0 -2.06,-2.27 -4.58,-2.47 1.7,-1.87 1.66,-4.93 1.66,-4.93 0,0 2.06,2.27 4.57,2.47 -1.69,1.87 -1.65,4.93 -1.65,4.93 z"
         opacity="1"
         data-original="#ffc05e"
         id="path8" /><g
         fill="#3c4052"
         id="g10"><path
           d="M 53.149,7.912 H 34.613 A 2.994,2.994 0 0 0 32.058,9.36 l -13.384,4.836 a 3.021,3.021 0 0 0 -1.794,3.837 l 1.841,5.095 -9.995,8.733 A 2.652,2.652 0 0 0 8.512,35.573 L 25.95,55.204 c 0.521,0.583 1.247,0.88 1.976,0.88 0.62,0 1.241,-0.215 1.74,-0.654 l 8.835,-7.805 c 0.014,-0.012 0.019,-0.03 0.032,-0.043 l 4.229,-1.528 h 10.387 c 1.654,0 3,-1.346 3,-3 V 10.912 c 0,-1.655 -1.346,-3 -3,-3 z m -33.788,8.162 12.252,-4.427 v 31.407 c 0,1.654 1.346,3 3,3 h 2.264 L 30.966,48.19 A 1.014,1.014 0 0 1 29.681,47.582 L 18.763,17.358 a 1.013,1.013 0 0 1 0.598,-1.284 z m 8.982,37.856 a 0.643,0.643 0 0 1 -0.9,-0.057 L 10.01,34.249 a 0.642,0.642 0 0 1 0.043,-0.892 l 9.397,-8.21 8.352,23.12 a 3.025,3.025 0 0 0 2.837,1.981 c 0.333,0 0.671,-0.056 1.002,-0.173 l 1.807,-0.653 z M 54.149,43.055 c 0,0.551 -0.449,1 -1,1 H 34.613 c -0.551,0 -1,-0.449 -1,-1 V 10.912 c 0,-0.551 0.449,-1 1,-1 h 18.536 c 0.551,0 1,0.449 1,1 z"
           fill="#3c4052"
           opacity="1"
           data-original="#3c4052"
           class=""
           id="path9" /><path
           d="m 46.165,21.066 c -0.914,0 -1.702,0.514 -2.285,1.014 -0.584,-0.501 -1.371,-1.014 -2.281,-1.014 -1.102,0 -2.138,0.43 -2.918,1.209 a 4.116,4.116 0 0 0 -1.21,2.918 4.118,4.118 0 0 0 1.21,2.918 l 4.494,4.495 a 1,1 0 0 0 1.414,0 l 4.494,-4.495 c 0.78,-0.779 1.209,-1.815 1.209,-2.917 0,-1.102 -0.429,-2.139 -1.208,-2.918 a 4.104,4.104 0 0 0 -2.919,-1.21 z m 1.503,5.632 -3.787,3.788 -3.787,-3.788 a 2.126,2.126 0 0 1 1.504,-3.631 c 0.475,0 1.196,0.721 1.574,1.099 a 0.998,0.998 0 0 0 1.412,0.002 l 0.075,-0.074 c 0.308,-0.308 1.028,-1.028 1.506,-1.028 0.568,0 1.102,0.222 1.504,0.624 0.402,0.402 0.623,0.936 0.623,1.504 0,0.569 -0.222,1.102 -0.624,1.504 z m -30.446,4.666 h -2.961 a 0.997,0.997 0 0 0 -1,1 v 2.959 c 0,0.657 0.255,1.274 0.719,1.738 0.464,0.464 1.081,0.72 1.737,0.72 a 2.44,2.44 0 0 0 1.738,-0.72 c 0.291,-0.291 0.437,-0.649 0.511,-0.993 0.34,-0.074 0.701,-0.22 0.993,-0.512 a 2.444,2.444 0 0 0 0.719,-1.737 2.452,2.452 0 0 0 -2.456,-2.455 z m 0.384,2.733 c -0.047,0.021 -0.175,0.046 -0.575,0.046 -0.548,0.006 -0.99,0.5 -0.99,1.049 0,0.341 -0.023,0.463 0,0.456 a 0.464,0.464 0 0 1 -0.646,0 0.447,0.447 0 0 1 -0.133,-0.322 v -1.961 h 1.961 a 0.451,0.451 0 0 1 0.456,0.456 0.577,0.577 0 0 1 -0.073,0.276 z m 5.267,-11.542 c 2.078,0.17 3.897,2.129 3.914,2.147 a 0.999,0.999 0 0 0 1.105,0.257 1,1 0 0 0 0.635,-0.941 c 0,-0.027 -0.007,-2.7 1.396,-4.242 a 0.999,0.999 0 0 0 -0.659,-1.67 c -2.077,-0.17 -3.897,-2.129 -3.914,-2.147 a 1,1 0 0 0 -1.739,0.684 c 0,0.027 0.006,2.7 -1.396,4.242 a 0.999,0.999 0 0 0 0.658,1.67 z m 2.52,-3.938 a 8.925,8.925 0 0 0 2.139,1.137 8.918,8.918 0 0 0 -0.788,2.291 8.87,8.87 0 0 0 -2.139,-1.136 8.937,8.937 0 0 0 0.788,-2.292 z"
           fill="#3c4052"
           opacity="1"
           data-original="#3c4052"
           class=""
           id="path10" /></g></g><g
       id="text2"><path
         style="color:#000000;-inkscape-font-specification:'Spicy Rice';fill:#efefef;stroke-linejoin:round;-inkscape-stroke:none;paint-order:stroke markers fill"
         d="m 59.367187,114.39453 c -1.663783,0.31996 -3.429267,0.5759 -5.292968,0.77149 -1.819172,0.17054 -3.662393,0.25781 -5.53125,0.25781 -1.469322,0 -2.87149,-0.0641 -4.208985,-0.18945 a 3.9823783,3.9823783 0 0 0 -3.980468,5.64843 c -0.212054,-0.4544 0.02874,0.112 0.166015,0.91602 a 3.9823783,3.9823783 0 0 0 0.01563,0.0918 c 0.154459,0.79159 0.318,1.87633 0.470703,3.20703 a 3.9823783,3.9823783 0 0 0 0,0.006 c 0.110076,0.9435 0.220757,2.08934 0.332032,3.21093 a 3.9823783,3.9823783 0 0 0 -0.71875,-0.0547 c -0.27184,0.0453 -0.651991,0.0937 -1.121094,0.13281 a 3.9823783,3.9823783 0 0 0 -0.06641,0.006 c -0.378016,0.0378 -0.888227,0.0777 -1.478516,0.11914 -0.574269,0.0199 -1.244773,0.0332 -2.017578,0.0332 -1.117337,0 -2.441111,-0.0527 -3.951172,-0.16211 -1.42957,-0.10359 -3.02558,-0.30465 -4.777344,-0.60742 a 3.9823783,3.9823783 0 0 0 -3.910156,1.98047 c -0.135682,0.0126 -0.232171,0.0297 -0.378906,0.041 a 3.9823783,3.9823783 0 0 0 -0.04102,0.002 c -0.464655,0.0404 -1.050885,0.0823 -1.726562,0.125 -0.648451,0.0204 -1.391156,0.0332 -2.234375,0.0332 -1.241444,0 -2.655517,-0.0527 -4.232422,-0.16211 h -0.0039 c -1.475789,-0.10407 -3.090982,-0.30583 -4.835938,-0.60742 a 3.9823783,3.9823783 0 0 0 -3.9335938,6.2168 c -0.1221655,-0.17361 0.2044317,0.39574 0.421875,1.46484 0.237513,1.16777 0.4274627,2.53218 0.5546875,4.08008 a 3.9823783,3.9823783 0 0 0 0.00391,0.0586 c 0.1512484,1.55569 0.2493794,3.16191 0.2929687,4.81836 a 3.9823783,3.9823783 0 0 0 0,0.002 c 0.024279,0.91051 0.025954,1.6343 0.037109,2.44141 -0.1148897,-0.45743 -0.2693896,-0.90499 -0.3808594,-1.36328 l -0.00195,-0.008 c -0.9634248,-4.07877 -1.769988,-8.18991 -2.4199313,-12.3361 -0.6411732,-4.09024 -1.038236,-8.24977 -1.1933593,-12.48242 a 3.9823783,3.9823783 0 0 0 -4.7851563,-3.75391 c -1.2198169,0.25171 -2.6094383,0.425 -4.1621093,0.50781 a 3.9823783,3.9823783 0 0 0 -0.00195,0.002 c -1.6233213,0.0877 -3.3094283,0.13086 -5.0566408,0.13086 -2.062862,0 -4.075545,-0.0432 -6.042969,-0.13086 -0.005,-2.9e-4 -0.0086,-0.002 -0.01367,-0.002 -1.92819,-0.10989 -3.684605,-0.27346 -5.259765,-0.48632 a 3.9823783,3.9823783 0 0 0 -4.511719,3.74023 c -0.22556,4.33076 -0.574383,8.55444 -1.046875,12.67187 a 3.9823783,3.9823783 0 0 0 -0.002,0.0215 c -0.448883,4.10727 -1.043144,8.16738 -1.783203,12.18164 -0.739238,4.00981 -1.636115,7.99802 -2.689453,11.96484 a 3.9823783,3.9823783 0 0 0 -0.0039,0.0195 c -1.029602,3.96174 -2.24097,7.96308 -3.632812,12.00391 a 3.9823783,3.9823783 0 0 0 4.210937,5.25391 c 1.566287,-0.17649 3.070952,-0.30715 4.511719,-0.39453 1.461161,-0.0872 2.908357,-0.13086 4.34375,-0.13086 1.435394,0 2.870806,0.0438 4.306641,0.13086 a 3.9823783,3.9823783 0 0 0 0.0039,0 c 1.462337,0.0873 2.951152,0.21707 4.464844,0.39257 a 3.9823783,3.9823783 0 0 0 2.291015,-0.52343 3.9823783,3.9823783 0 0 0 3.4765631,1.13867 c 3.6125748,-0.6706 7.1108928,-1.00195 10.5039062,-1.00195 1.2875813,0 2.5499825,0.0325 3.7871094,0.0976 a 3.9823783,3.9823783 0 0 0 0.00391,0 c 1.2228486,0.0633 2.4997532,0.17991 3.8300782,0.35156 a 3.9823783,3.9823783 0 0 0 3.9960941,-2.29101 c 0.07199,0.0614 0.112437,0.15278 0.185547,0.21289 a 3.9823783,3.9823783 0 0 0 0.07422,0.0605 c 1.433309,1.12171 3.071845,1.98179 4.84375,2.59179 a 3.9823783,3.9823783 0 0 0 0.01953,0.008 c 1.916865,0.64926 3.984116,0.93359 6.169922,0.93359 2.556838,0 4.962511,-0.4134 7.132813,-1.36719 1.969216,-0.84354 3.743844,-2.01384 5.205078,-3.50195 0.666394,-0.66801 1.263785,-1.39524 1.810547,-2.16016 a 3.9823783,3.9823783 0 0 0 3.71875,5.66797 c 1.420849,-0.13116 2.777495,-0.21663 4.070312,-0.25976 1.362543,-0.0447 2.639003,-0.0684 3.830078,-0.0684 1.209903,0 2.312194,0.0131 3.306641,0.0352 0.0047,1.1e-4 0.01093,-1e-4 0.01563,0 0.971857,0.0436 1.816559,0.0885 2.494141,0.13086 0.545542,0.0429 1.004768,0.0732 1.482422,0.10742 a 3.9823783,3.9823783 0 0 0 3.865234,0.95313 c 0.220512,-0.0702 0.736442,-0.19631 1.445312,-0.31445 0.578989,-0.093 1.415522,-0.20007 2.451172,-0.30665 0.993868,-0.0786 2.286331,-0.12304 3.853516,-0.12304 1.762358,0 3.919112,0.0982 6.4375,0.29883 a 3.9823783,3.9823783 0 0 0 4.105469,-3.05469 c 0.865385,0.78217 1.726118,1.56871 2.716797,2.11523 1.235736,0.69173 2.53102,1.21174 3.888671,1.49024 1.099167,0.22546 2.158379,0.35742 3.212891,0.35742 2.478915,0 4.890709,-0.87216 6.902344,-2.33789 a 3.9823783,3.9823783 0 0 0 3.427739,1.24414 c 1.318,-0.23013 2.58013,-0.38503 3.7832,-0.4668 1.30479,-0.087 2.48321,-0.1289 3.52539,-0.1289 0.76587,0 1.45557,0.0121 2.06641,0.0332 a 3.9823783,3.9823783 0 0 0 0.006,0 c 0.63159,0.021 1.1452,0.053 1.51171,0.0879 a 3.9823783,3.9823783 0 0 0 0.0606,0.004 c 0.54895,0.0439 1.02304,0.0875 1.41602,0.1289 a 3.9823783,3.9823783 0 0 0 1.91015,-0.61914 3.9823783,3.9823783 0 0 0 1.92774,0.66602 c 2.17166,-0.32905 4.1669,-0.5459 5.97656,-0.65235 a 3.9823783,3.9823783 0 0 0 0.0469,-0.002 c 1.8811,-0.13279 3.51636,-0.19726 4.88671,-0.19727 0.76588,1e-5 1.43185,0.0106 1.98828,0.0312 0.60752,0.0225 1.13193,0.0466 1.56836,0.0684 0.18653,0.0158 0.33931,0.0259 0.51172,0.0391 a 3.9823783,3.9823783 0 0 0 3.57227,1.51757 c 0.69445,-0.0896 1.52152,-0.19294 2.47656,-0.30664 0.91526,-0.10896 1.89396,-0.20644 2.93359,-0.29492 1.0334,-0.0879 2.09132,-0.16399 3.17188,-0.23047 1.0822,-0.0427 2.14068,-0.0664 3.17383,-0.0664 0.85769,0 1.67698,0.0107 2.46484,0.0312 0.71826,0.0397 1.35575,0.10614 1.89649,0.19336 l -1.91602,-0.8711 a 3.9823783,3.9823783 0 0 0 6.39648,-4.09179 c -0.35401,-1.31774 -0.64652,-2.85722 -0.85742,-4.60547 v -0.006 c -0.2163,-1.81825 -0.36916,-3.74997 -0.45703,-5.79297 -0.09,-2.09077 -0.14742,-4.22984 -0.16992,-6.41602 v -6.53906 c 0,-1.04284 -0.16203,-1.79932 -0.20313,-2.76367 1.15956,-0.2876 2.38687,-0.53991 3.70899,-0.74024 a 3.9823783,3.9823783 0 0 0 0.0488,-0.008 c 0.003,-5.3e-4 0.007,-10e-4 0.01,-0.002 -0.009,4.40068 -0.16518,8.90587 -0.49414,13.5332 a 3.9823783,3.9823783 0 0 0 0,0.0176 c -0.31275,4.69128 -0.84829,9.20175 -1.60351,13.5332 a 3.9823783,3.9823783 0 0 0 4.51953,4.6211 c 2.17165,-0.32905 4.1669,-0.5459 5.97656,-0.65235 a 3.9823783,3.9823783 0 0 0 0.0469,-0.002 c 1.8811,-0.13279 3.51637,-0.19726 4.88671,-0.19727 0.76589,0 1.43186,0.0106 1.98829,0.0312 0.60752,0.0225 1.13192,0.0466 1.56835,0.0684 0.48969,0.0416 0.94471,0.0762 1.3418,0.0996 a 3.9823783,3.9823783 0 0 0 4.06836,-5.04687 c -0.42727,-1.52598 -0.81004,-3.34933 -1.13476,-5.44531 -0.30733,-2.13282 -0.56371,-4.39813 -0.76368,-6.79688 v -0.004 c -0.20102,-2.43537 -0.3458,-4.94425 -0.43554,-7.52343 v -0.002 c -0.0695,-2.01707 -0.0895,-3.99399 -0.10547,-5.96875 0.79877,0.20025 1.56586,0.41745 2.14062,0.7168 a 3.9823783,3.9823783 0 0 0 0.67774,0.0742 c 7.7e-4,0.0282 0.005,0.0538 0.006,0.082 a 3.9823783,3.9823783 0 0 0 0,0.002 c 0.0452,1.69426 0.0684,3.20918 0.0684,4.54297 0,1.14535 -0.0133,2.02305 -0.0332,2.58008 a 3.9823783,3.9823783 0 0 0 -0.002,0.14258 v 1.39844 a 3.9823783,3.9823783 0 0 0 -0.10352,0.83984 v 0.62109 c 0,1.59525 0.10234,3.19972 0.30664,4.8086 a 3.9823783,3.9823783 0 0 0 0.01,0.0605 c 0.23799,1.66594 0.60984,3.28503 1.12109,4.84571 a 3.9823783,3.9823783 0 0 0 0.008,0.0195 c 0.53137,1.59411 1.23814,3.11073 2.11523,4.52539 0.93489,1.50788 2.10594,2.85086 3.47266,3.97461 a 3.9823783,3.9823783 0 0 0 0.0762,0.0605 c 1.43331,1.12171 3.07185,1.98179 4.84375,2.59179 a 3.9823783,3.9823783 0 0 0 0.0195,0.008 c 1.91687,0.64926 3.98216,0.93359 6.16797,0.93359 2.55684,0 4.96446,-0.4134 7.13476,-1.36719 1.96922,-0.84354 3.74189,-2.01384 5.20313,-3.50195 0.98294,-0.98533 1.78984,-2.11593 2.50781,-3.30469 -0.10379,0.6621 -0.19682,1.50119 -0.30664,2.01367 a 3.9823783,3.9823783 0 0 0 4.49024,4.77149 c 2.17166,-0.32905 4.16495,-0.5459 5.97461,-0.65235 a 3.9823783,3.9823783 0 0 0 0.0469,-0.002 c 1.88111,-0.13279 3.51833,-0.19726 4.88867,-0.19727 0.76588,1e-5 1.43185,0.0106 1.98828,0.0312 0.60753,0.0225 1.13193,0.0466 1.56836,0.0684 0.18677,0.0159 0.33911,0.0258 0.51172,0.0391 a 3.9823783,3.9823783 0 0 0 3.57227,1.51757 c 0.69445,-0.0896 1.51957,-0.19294 2.47461,-0.30664 0.91525,-0.10896 1.89396,-0.20644 2.93359,-0.29492 1.0334,-0.0879 2.09132,-0.16399 3.17188,-0.23047 1.0822,-0.0427 2.14068,-0.0664 3.17382,-0.0664 0.85769,0 1.67698,0.0107 2.46485,0.0312 0.71825,0.0397 1.35574,0.10614 1.89648,0.19336 l -2.18164,-1.11524 a 3.9823783,3.9823783 0 0 0 6.66211,-3.84765 c -0.35399,-1.31763 -0.64458,-2.85739 -0.85547,-4.60547 -0.21665,-1.81985 -0.37103,-3.75378 -0.45898,-5.79883 -0.0899,-2.09085 -0.1454,-4.22975 -0.16797,-6.41602 v -6.53906 c 0,-3.31123 -0.20068,-6.21672 -0.64453,-8.77539 -0.44275,-2.55228 -1.13372,-4.80712 -2.22266,-6.77539 -1.06235,-1.96123 -2.59909,-3.64996 -4.54101,-4.72461 -1.87447,-1.07102 -4.02897,-1.55078 -6.22071,-1.55078 -1.18446,0 -2.35492,0.19874 -3.5,0.53516 -1.11021,0.30456 -2.18222,0.76645 -3.22461,1.32617 a 3.9823783,3.9823783 0 0 0 -3.1289,-0.91211 c -0.32595,0.0543 -0.74409,0.11325 -1.22266,0.17383 -0.38188,0.0378 -0.88072,0.0798 -1.47266,0.12109 -0.56889,0.0194 -1.22863,0.0293 -1.99023,0.0293 -1.16256,0 -2.50072,-0.0539 -4,-0.16211 -1.44326,-0.12668 -3.0418,-0.33761 -4.79492,-0.64063 a 3.9823783,3.9823783 0 0 0 -3.62891,1.46485 3.9823783,3.9823783 0 0 0 -0.73633,-0.0566 c -0.27184,0.0453 -0.65394,0.0937 -1.12304,0.13281 a 3.9823783,3.9823783 0 0 0 -0.0645,0.006 c -0.37801,0.0378 -0.88822,0.0777 -1.47851,0.11914 -0.57428,0.0199 -1.24672,0.0332 -2.01953,0.0332 -1.11734,0 -2.43916,-0.0527 -3.94922,-0.16211 -1.42957,-0.10359 -3.02558,-0.30465 -4.77735,-0.60742 a 3.9823783,3.9823783 0 0 0 -3.91211,1.98047 c -0.13568,0.0126 -0.23217,0.0297 -0.3789,0.041 a 3.9823783,3.9823783 0 0 0 -0.0391,0.002 c -0.46468,0.0404 -1.0528,0.0823 -1.72852,0.125 -0.64806,0.0204 -1.38994,0.0332 -2.23242,0.0332 -1.24145,0 -2.65747,-0.0527 -4.23438,-0.16211 h -0.004 c -0.75547,-0.0533 -1.64772,-0.20615 -2.47461,-0.31055 a 3.9823783,3.9823783 0 0 0 -3.86328,-3.38671 3.9823783,3.9823783 0 0 0 -1.60157,0.33593 c -0.38264,0.16799 -1.077,0.33342 -1.69336,0.5 0.006,-0.0608 0.0116,-0.14284 0.0176,-0.20312 0.17234,-1.55108 0.37537,-2.79885 0.57813,-3.6836 a 3.9823783,3.9823783 0 0 0 -4.53711,-4.81835 c -0.27186,0.0453 -0.65393,0.0937 -1.12305,0.13281 a 3.9823783,3.9823783 0 0 0 -0.0644,0.006 c -0.37799,0.0378 -0.88825,0.0777 -1.47852,0.11914 -0.57427,0.0199 -1.24477,0.0332 -2.01758,0.0332 -1.16765,0 -2.51223,-0.0529 -4.01953,-0.16211 -1.42956,-0.10359 -3.02558,-0.30464 -4.77734,-0.60742 a 3.9823783,3.9823783 0 0 0 -4.59375,4.64258 c 0.23116,1.26085 0.43619,2.70615 0.61133,4.32617 0.0142,0.13122 0.0232,0.29838 0.0371,0.43164 -1.01014,-0.22948 -1.95887,-0.47586 -2.60742,-0.74609 a 3.9823783,3.9823783 0 0 0 -5.15821,3.37304 c -0.71152,-0.71717 -1.4944,-1.35991 -2.38281,-1.85156 -1.87446,-1.07102 -4.02896,-1.55078 -6.2207,-1.55078 -1.18447,0 -2.35492,0.19874 -3.5,0.53516 -1.11046,0.30463 -2.18202,0.76823 -3.22461,1.32812 a 3.9823783,3.9823783 0 0 0 -3.12891,-0.91406 c -0.32597,0.0543 -0.74599,0.11324 -1.22461,0.17383 -0.38186,0.0378 -0.87882,0.0798 -1.4707,0.12109 -0.56925,0.0194 -1.22792,0.0293 -1.99024,0.0293 -1.16255,0 -2.50071,-0.0539 -4,-0.16211 -1.44325,-0.12668 -3.0418,-0.33761 -4.79492,-0.64063 a 3.9823783,3.9823783 0 0 0 -3.92187,2.47071 3.9823783,3.9823783 0 0 0 -1.21875,-0.16602 c -0.36761,0.0368 -0.79844,0.0657 -1.28516,0.0859 a 3.9823783,3.9823783 0 0 0 -0.11719,0.008 c -0.81229,0.058 -2.00264,0.0918 -3.50586,0.0918 -1.21599,0 -2.5634,-0.043 -4.03515,-0.13086 -1.35911,-0.0811 -2.69203,-0.25129 -4.003909,-0.51367 a 3.9823783,3.9823783 0 0 0 -3.439453,1.0371 c -0.405315,-0.1746 -0.758715,-0.44036 -1.181641,-0.58007 -1.441752,-0.50837 -2.970227,-0.74219 -4.53125,-0.74219 -2.162582,0 -4.279623,0.63592 -6.216797,1.69531 -1.471975,0.80499 -2.720808,1.96563 -3.875,3.26172 a 3.9823783,3.9823783 0 0 0 -4.277344,-5.08984 c -1.511633,0.29393 -3.005761,0.50136 -4.484375,0.62695 -1.523863,0.1064 -3.059088,0.16016 -4.607421,0.16016 -0.818912,0 -1.663226,-0.012 -2.529297,-0.0332 -0.639153,-0.0325 -1.251933,-0.0865 -1.861328,-0.14258 0.08288,-0.93245 0.160156,-1.906 0.25,-2.76757 0.175139,-1.48547 0.371621,-2.81541 0.582031,-3.97266 a 3.9823783,3.9823783 0 0 0 0.002,-0.0117 c 0.206455,-1.15615 0.431116,-2.03444 0.605469,-2.54297 a 3.9823783,3.9823783 0 0 0 -4.519532,-5.20117 z m -11.015625,5.97266 0.01758,0.0918 c -0.0021,-0.0121 -0.0058,-0.0212 -0.0078,-0.0332 -0.0033,-0.0169 -0.0065,-0.0418 -0.0098,-0.0586 z m 6.75,2.69336 c -0.104291,0.71905 -0.222539,1.36912 -0.314453,2.15039 a 3.9823783,3.9823783 0 0 0 -0.0059,0.0527 c -0.164722,1.57663 -0.316891,3.25028 -0.457031,5.02539 a 3.9823783,3.9823783 0 0 0 -0.0039,0.0488 c -0.116086,1.7413 -0.219667,3.49399 -0.3125,5.25781 -0.0935,1.75334 -0.164028,3.46167 -0.210937,5.12696 a 3.9823783,3.9823783 0 0 0 -0.002,0.0566 c -0.02318,1.64621 -0.03516,3.15759 -0.03516,4.53515 0,0.95188 0.01253,1.81679 0.03711,2.60352 0.02463,0.78803 0.06241,1.48526 0.117187,2.11523 a 3.9823783,3.9823783 0 0 0 1.904297,2.33594 3.9823783,3.9823783 0 0 0 -1.638672,2.30078 c -0.04797,0.86352 -0.08343,1.72815 -0.107421,2.5918 -0.02404,0.84268 -0.03711,1.70551 -0.03711,2.58984 0,1.86413 0.1,3.85386 0.292969,5.97656 a 3.9823783,3.9823783 0 0 0 0,0.004 c 0.06399,0.6959 0.275084,1.59891 0.378906,2.34766 -0.03656,-0.002 -0.05879,-0.004 -0.0957,-0.006 a 3.9823783,3.9823783 0 0 0 -0.08789,-0.004 c -1.068947,-0.0238 -2.23515,-0.0351 -3.5,-0.0351 -0.829641,0 -1.741319,0.0253 -2.632812,0.0449 0.135079,-0.60389 0.311989,-1.14658 0.423828,-1.78711 a 3.9823783,3.9823783 0 0 0 0.002,-0.01 c 0.270982,-1.57661 0.488989,-3.23412 0.658203,-4.97461 0.187139,-1.69337 0.328959,-3.39688 0.423828,-5.11133 v -0.008 c 0.117919,-1.74667 0.200651,-3.46196 0.248047,-5.14453 0.04685,-1.66329 0.07031,-3.22657 0.07031,-4.69336 0,-1.95426 -0.03506,-3.95239 -0.105469,-5.99414 -0.07003,-2.03071 -0.162313,-4.01705 -0.279297,-5.95898 -0.117214,-1.94576 -0.258578,-3.80369 -0.423828,-5.57422 -0.163054,-1.747 -0.32699,-3.32621 -0.492187,-4.74219 -0.03556,-0.30956 -0.0822,-0.51348 -0.119141,-0.80469 2.033184,-0.008 4.050296,-0.0935 6.044922,-0.28125 a 3.9823783,3.9823783 0 0 0 0.04297,-0.004 c 0.07527,-0.008 0.141749,-0.0232 0.216796,-0.0312 z m 110.056638,3.21679 c 0.0726,0.006 0.1583,0.0241 0.23047,0.0293 1.6622,0.12045 3.19102,0.18164 4.5957,0.18164 0.24737,0 0.43814,-0.008 0.67188,-0.01 -0.14675,1.52514 -0.29381,3.14952 -0.43945,4.98046 a 3.9823783,3.9823783 0 0 0 4.39062,4.27539 c 0.98984,-0.10498 1.89425,-0.28066 2.82617,-0.43359 -0.005,0.28561 -0.0293,0.56149 -0.0293,0.84961 0,0.1924 0.0171,0.38904 0.0195,0.58203 -1.01709,-0.1727 -2.02722,-0.35849 -3.07227,-0.47461 a 3.9823783,3.9823783 0 0 0 -4.42187,3.95703 v 2.96289 c 0,2.6423 0.0453,5.31863 0.13867,8.02735 0.0939,2.70125 0.24681,5.33657 0.45898,7.90625 a 3.9823783,3.9823783 0 0 0 0.002,0.004 c 0.2127,2.55243 0.4842,4.98556 0.81836,7.30079 a 3.9823783,3.9823783 0 0 0 0.006,0.0391 c 0.0645,0.41695 0.16884,0.73009 0.23828,1.13281 -0.0708,-1.7e-4 -0.1233,-0.004 -0.19532,-0.004 -1.61019,0 -3.41619,0.0749 -5.43164,0.2168 -0.48135,0.0285 -1.04322,0.12481 -1.53906,0.16602 0.40582,-3.03523 0.87853,-6.02359 1.08984,-9.19336 0.35001,-4.92906 0.5254,-9.74923 0.5254,-14.45899 v -4.09961 a 3.9823783,3.9823783 0 0 0 -4.27344,-3.9707 c -1.4139,0.10396 -2.8153,0.28887 -4.21289,0.49805 -0.003,-0.48427 -0.0391,-0.96189 -0.0566,-1.44336 1.2577,0.20014 2.51616,0.39854 3.79882,0.51172 a 3.9823783,3.9823783 0 0 0 4.32227,-4.24219 c -0.13075,-1.89578 -0.2877,-3.63888 -0.46094,-5.29102 z m -184.154294,0.35547 c 0.590334,0.0454 1.103429,0.1252 1.71875,0.16016 a 3.9823783,3.9823783 0 0 0 0.04687,0.002 c 2.106236,0.0947 4.256173,0.14258 6.449219,0.14258 1.8809518,0 3.709131,-0.0486 5.484375,-0.14453 0.3450362,-0.0184 0.6369874,-0.095 0.9746094,-0.12109 0.227173,3.05948 0.4031828,6.13149 0.8730468,9.1289 0.6817442,4.34906 1.5281077,8.66443 2.53906255,12.94336 a 3.9823783,3.9823783 0 0 0 0.005859,0.0254 c 1.03138066,4.24272 2.20309925,8.44913 3.51562495,12.62109 a 3.9823783,3.9823783 0 0 0 0.00195,0.008 c 0.6919549,2.18707 1.4560748,4.34951 2.1874999,6.52343 -0.8164334,-0.0247 -1.6245377,-0.0625 -2.4550781,-0.0625 -1.97239574,0 -3.9654971,0.10011 -5.9765625,0.29297 0.079589,-0.80244 0.1386719,-1.61375 0.1386719,-2.58203 0,-1.296 -0.094443,-2.55392 -0.2929688,-3.77344 -0.1997496,-1.24974 -0.5096199,-2.42884 -0.9785156,-3.54101 -0.4775981,-1.1561 -1.1534218,-2.25612 -2.109375,-3.17774 -1.0948175,-1.07352 -2.805015,-1.82617 -4.3906255,-1.82617 -1.485417,0 -3.153969,0.55496 -4.347656,1.57813 a 3.9823783,3.9823783 0 0 0 -0.07227,0.0644 c -0.985344,0.88681 -1.670613,1.97731 -2.144531,3.10742 a 3.9823783,3.9823783 0 0 0 -0.04297,0.10157 c -0.403094,1.04132 -0.670562,2.13838 -0.84375,3.29296 a 3.9823783,3.9823783 0 0 0 -0.01367,0.0977 c -0.137632,1.10106 -0.203125,2.24087 -0.203125,3.42188 0,1.05174 0.07309,2.00128 0.19336,2.92382 -1.320655,-0.0662 -2.641986,-0.11914 -3.962891,-0.11914 -1.261751,0 -2.534196,0.053 -3.808594,0.11328 0.70092,-2.28748 1.48591,-4.58736 2.076172,-6.85742 1.105587,-4.16359 2.047616,-8.35196 2.824219,-12.56445 0.775666,-4.2074 1.397402,-8.45971 1.867188,-12.75781 0.336948,-2.93878 0.530536,-5.98876 0.746093,-9.02149 z m 149.765624,3.94922 c -0.008,0.007 -0.0151,0.0164 -0.0234,0.0234 -0.008,0.007 -0.0158,0.011 -0.0234,0.0176 z m 101.01172,0 c -0.007,0.006 -0.0126,0.0137 -0.0195,0.0195 -0.009,0.008 -0.0198,0.0133 -0.0293,0.0215 z m -133.417969,0.29102 0.06836,0.0469 c -0.01024,-0.007 -0.02294,-0.0105 -0.0332,-0.0176 -0.01278,-0.009 -0.02235,-0.0208 -0.03516,-0.0293 z m -110.839844,1.25781 a 3.9823783,3.9823783 0 0 0 -3.445312,3.34375 c -0.169516,1.10185 -0.357247,2.06128 -0.552734,2.86328 -2.58e-4,0.001 2.57e-4,0.003 0,0.004 -0.221601,0.88576 -0.433056,1.69203 -0.628907,2.41015 l 0.0098,-0.0312 c -0.212884,0.75693 -0.403361,1.45985 -0.572266,2.11133 a 3.9823783,3.9823783 0 0 0 -0.0332,0.13672 c -0.192002,0.86402 -0.302734,1.73805 -0.302734,2.62109 0,1.75894 0.43306,3.67343 1.699219,5.21485 a 3.9823783,3.9823783 0 0 0 0.09961,0.11718 c 1.080314,1.21535 2.900905,2.26758 4.802734,2.26758 1.9964835,0 4.0425352,-1.28929 5.0527348,-2.73242 0.9846536,-1.40665 1.4361725,-3.0795 1.5078125,-4.69141 a 3.9823783,3.9823783 0 0 0 -0.017578,-0.59375 c -0.090094,-0.85589 -0.2722769,-1.59981 -0.5292968,-2.55078 a 3.9823783,3.9823783 0 0 0 -0.00977,-0.0391 c -0.2400058,-0.85335 -0.5699601,-1.86929 -0.9941406,-3.0957 l -0.00195,-0.004 c -0.4625033,-1.36141 -1.0977034,-2.99012 -1.9238282,-4.94922 a 3.9823783,3.9823783 0 0 0 -4.1601567,-2.40234 z m 164.099613,0.5 0.0234,0.043 c -0.003,-0.006 -0.008,-0.0114 -0.0117,-0.0176 -0.004,-0.008 -0.007,-0.0174 -0.0117,-0.0254 z m -10.75,1.71289 c 1.10059,0 1.77601,0.20852 2.28125,0.5 a 3.9823783,3.9823783 0 0 0 0.0781,0.0449 c 0.46662,0.25532 0.91284,0.65771 1.4043,1.56836 a 3.9823783,3.9823783 0 0 0 0.0234,0.041 c 0.51109,0.91995 1.01326,2.35597 1.34961,4.29492 0.33703,1.94291 0.52734,4.43224 0.52734,7.41406 v 6.58008 a 3.9823783,3.9823783 0 0 0 0,0.041 c 0.0234,2.26949 0.0819,4.49464 0.17578,6.67579 0.0958,2.22686 0.26316,4.35978 0.50586,6.39843 a 3.9823783,3.9823783 0 0 0 0.002,0.006 c 0.0189,0.15689 0.0619,0.28048 0.082,0.43555 -0.055,-8e-5 -0.10492,-0.002 -0.16015,-0.002 -1.15774,0 -2.33595,0.0243 -3.53516,0.0723 a 3.9823783,3.9823783 0 0 0 -0.084,0.004 c -1.15563,0.0708 -2.2902,0.1534 -3.40235,0.24805 -0.0738,0.006 -0.13759,0.0151 -0.21093,0.0215 0.39184,-1.84849 0.90901,-3.5892 1.18164,-5.54102 3.4e-4,-0.002 -3.5e-4,-0.005 0,-0.008 0.58367,-4.01559 0.86914,-8.40173 0.86914,-13.17383 0,-0.43287 -0.0129,-0.93119 -0.0371,-1.53711 l 0.002,0.15821 c 0,-0.68037 -0.0268,-1.38841 -0.0781,-2.13282 -0.0529,-0.76646 -0.14754,-1.53286 -0.27539,-2.29492 -0.12178,-0.89325 -0.32963,-1.76132 -0.63672,-2.60156 -0.30942,-0.91081 -0.75481,-1.82363 -1.46289,-2.64062 -0.89418,-1.03176 -2.50443,-1.7956 -3.94922,-1.85157 0.12103,-0.11082 0.23999,-0.27529 0.36133,-0.37695 a 3.9823783,3.9823783 0 0 0 0.0488,-0.041 c 0.67059,-0.57996 1.30065,-1.02371 1.88477,-1.35742 0.62125,-0.34177 1.1827,-0.57023 1.68164,-0.70508 a 3.9823783,3.9823783 0 0 0 0.0957,-0.0254 c 0.53984,-0.16049 0.96187,-0.21484 1.27735,-0.21484 z m 101.00976,0 c 1.10059,0 1.77601,0.20852 2.28125,0.5 a 3.9823783,3.9823783 0 0 0 0.0801,0.0449 c 0.46663,0.25532 0.91284,0.65772 1.4043,1.56836 a 3.9823783,3.9823783 0 0 0 0.0234,0.041 c 0.51109,0.91996 1.01131,2.35596 1.34766,4.29492 0.33704,1.94291 0.52734,4.43224 0.52734,7.41406 v 6.58008 a 3.9823783,3.9823783 0 0 0 0,0.041 c 0.0234,2.2694 0.082,4.49472 0.17579,6.67579 0.0958,2.22686 0.26511,4.35978 0.50781,6.39843 a 3.9823783,3.9823783 0 0 0 0,0.006 c 0.0189,0.15689 0.0619,0.28048 0.082,0.43555 -0.055,-8e-5 -0.10492,-0.002 -0.16016,-0.002 -1.15773,0 -2.33594,0.0243 -3.53515,0.0723 a 3.9823783,3.9823783 0 0 0 -0.084,0.004 c -1.15562,0.0708 -2.29019,0.1534 -3.40234,0.24805 -0.0738,0.006 -0.1376,0.0151 -0.21094,0.0215 0.39335,-1.85561 0.91233,-3.60277 1.18555,-5.5625 0.58243,-4.01217 0.86523,-8.39304 0.86523,-13.16016 0,-0.43287 -0.0129,-0.93119 -0.0371,-1.53711 l 0.002,0.15821 c 0,-0.68037 -0.0268,-1.38841 -0.0781,-2.13282 -0.0529,-0.76648 -0.14753,-1.53285 -0.27539,-2.29492 -0.12149,-0.8912 -0.32692,-1.75725 -0.63281,-2.5957 -0.30945,-0.9129 -0.7571,-1.8276 -1.4668,-2.64648 -0.89417,-1.03173 -2.50441,-1.7956 -3.94922,-1.85157 0.12103,-0.11082 0.24,-0.27529 0.36133,-0.37695 a 3.9823783,3.9823783 0 0 0 0.0488,-0.041 c 0.67137,-0.58064 1.30399,-1.02554 1.88867,-1.35937 0.61949,-0.3404 1.17999,-0.5686 1.67774,-0.70313 a 3.9823783,3.9823783 0 0 0 0.0957,-0.0254 c 0.53983,-0.16049 0.96187,-0.21484 1.27734,-0.21484 z m -120.43945,1.05664 c 0.0754,0.007 0.16529,0.0247 0.24023,0.0312 a 3.9823783,3.9823783 0 0 0 0.0566,0.004 c 1.6622,0.12045 3.18907,0.18359 4.59375,0.18359 0.23423,0 0.41472,-0.008 0.63672,-0.01 -0.003,0.0209 -0.005,0.0376 -0.008,0.0586 a 3.9823783,3.9823783 0 0 0 3.07227,3.98828 c -0.53727,0.56087 -1.13186,1.07328 -1.54883,1.72852 a 3.9823783,3.9823783 0 0 0 -0.0449,0.0742 c -0.65848,1.0865 -1.16236,2.27035 -1.54297,3.5293 a 3.9823783,3.9823783 0 0 0 -0.0234,0.082 c -0.37442,1.34169 -0.56055,2.73397 -0.56055,4.13672 0,1.97026 0.048,3.97129 0.14258,6.00586 a 3.9823783,3.9823783 0 0 0 0,0.004 c 0.0956,2.03076 0.24965,4.05001 0.46485,6.05859 0.21556,2.01191 0.49162,3.99062 0.82812,5.9375 a 3.9823783,3.9823783 0 0 0 0.002,0.01 c 0.0221,0.12641 0.0611,0.23754 0.084,0.36328 -0.0328,-4e-5 -0.0567,-0.002 -0.0898,-0.002 -1.61019,0 -3.41424,0.0749 -5.42968,0.2168 -0.43005,0.0255 -0.93341,0.11282 -1.375,0.14844 0.20416,-1.87244 0.37771,-3.8668 0.51367,-6.01953 0.14013,-2.21868 0.24434,-4.52647 0.31445,-6.91992 0.0938,-2.43808 0.14063,-4.84258 0.14063,-7.21485 0,-1.75794 -0.0233,-3.48377 -0.0703,-5.17578 -0.0469,-1.687 -0.11648,-3.28535 -0.21093,-4.80078 -0.0408,-0.86216 -0.12113,-1.62001 -0.18555,-2.41797 z m 101.00976,0 c 0.0754,0.007 0.1653,0.0247 0.24024,0.0312 a 3.9823783,3.9823783 0 0 0 0.0566,0.004 c 1.66219,0.12045 3.18906,0.18359 4.59375,0.18359 0.23495,0 0.41603,-0.008 0.63867,-0.01 -0.003,0.0209 -0.005,0.0376 -0.008,0.0586 a 3.9823783,3.9823783 0 0 0 3.07226,3.98828 c -0.53726,0.56086 -1.13186,1.07328 -1.54882,1.72852 a 3.9823783,3.9823783 0 0 0 -0.0469,0.0742 c -0.65847,1.08649 -1.16235,2.27036 -1.54297,3.5293 a 3.9823783,3.9823783 0 0 0 -0.0234,0.082 c -0.37443,1.34169 -0.56055,2.73397 -0.56055,4.13672 0,1.97026 0.0479,3.97128 0.14258,6.00586 a 3.9823783,3.9823783 0 0 0 0,0.004 c 0.0956,2.03077 0.25159,4.05 0.46679,6.05859 0.21557,2.01191 0.48968,3.99063 0.82618,5.9375 a 3.9823783,3.9823783 0 0 0 0.002,0.01 c 0.0221,0.1264 0.0611,0.23755 0.084,0.36328 -0.0322,-4e-5 -0.0555,-0.002 -0.0879,-0.002 -1.61019,0 -3.41619,0.0749 -5.43164,0.2168 -0.43005,0.0255 -0.9334,0.11282 -1.375,0.14844 0.20417,-1.87243 0.37771,-3.86681 0.51367,-6.01953 0.14013,-2.21867 0.24434,-4.52647 0.31446,-6.91992 0.0938,-2.43808 0.14062,-4.84258 0.14062,-7.21485 0,-1.75794 -0.0233,-3.48377 -0.0703,-5.17578 -0.0469,-1.687 -0.11648,-3.28535 -0.21094,-4.80078 -0.0408,-0.86216 -0.12113,-1.62001 -0.18555,-2.41797 z M 31.642578,136.3418 c 1.558962,0.10842 2.999853,0.17187 4.292969,0.17187 0.25169,0 0.446009,-0.01 0.683594,-0.0117 -0.119477,1.10682 -0.240363,2.21244 -0.345704,3.44141 a 3.9823783,3.9823783 0 0 0 -0.0039,0.0527 c -0.118304,1.6326 -0.212735,3.34178 -0.283203,5.12696 -0.07092,1.77421 -0.105469,3.54988 -0.105469,5.32422 0,0.62727 0.01203,1.25371 0.03711,1.88085 a 3.9823783,3.9823783 0 0 0 0,0.008 c 0.02076,0.49835 0.03125,0.98258 0.03125,1.45312 0,0.96286 -0.05938,2.11559 -0.1875,3.43946 a 3.9823783,3.9823783 0 0 0 -0.0059,0.0644 c -0.09473,1.17469 -0.306372,2.402 -0.642578,3.6875 a 3.9823783,3.9823783 0 0 0 -0.0098,0.041 c -0.303566,1.21426 -0.732582,2.4169 -1.294922,3.61914 -0.475916,1.01748 -1.081527,1.88231 -1.861328,2.66211 a 3.9823783,3.9823783 0 0 0 -0.0293,0.0293 c -0.688296,0.70294 -1.540665,1.29047 -2.677735,1.77539 a 3.9823783,3.9823783 0 0 0 -0.04492,0.0195 c -0.948424,0.41843 -2.231664,0.69532 -3.939453,0.69532 -1.484117,0 -2.673756,-0.19619 -3.603515,-0.50977 -1.008064,-0.34803 -1.807864,-0.78827 -2.478516,-1.30664 -0.683684,-0.56848 -1.249967,-1.20937 -1.730469,-1.98438 -0.545815,-0.88034 -0.987018,-1.81996 -1.328125,-2.84179 -0.355719,-1.08852 -0.620088,-2.23201 -0.794921,-3.44141 -0.160991,-1.27618 -0.242188,-2.53496 -0.242188,-3.7793 v -0.37304 c 0.0045,-0.10415 0.08049,-0.3757 0.08594,-0.46289 0.01412,-0.22589 0.01758,-0.41099 0.01758,-0.61133 v -1.41211 l -0.0039,0.14258 c 0.02605,-0.72926 0.03711,-1.66788 0.03711,-2.86524 0,-1.42169 -0.02366,-3.00393 -0.07031,-4.7539 v -0.002 c -0.04776,-1.81324 -0.155317,-3.58618 -0.322265,-5.31836 v -0.004 c -0.07523,-0.91452 -0.231631,-1.69564 -0.347657,-2.54102 1.584895,0.10347 3.080394,0.16992 4.441407,0.16992 0.413084,0 0.748917,-0.0109 1.128906,-0.0156 -0.159904,0.95449 -0.328081,1.74323 -0.484375,2.77148 a 3.9823783,3.9823783 0 0 0 -0.0039,0.0273 c -0.448608,3.09041 -0.660157,6.54449 -0.660157,10.39062 0,0.95741 0.03753,1.94117 0.113282,2.95117 a 3.9823783,3.9823783 0 0 0 0.0098,0.0977 c 0.110177,1.10177 0.292337,2.15863 0.560547,3.17188 a 3.9823783,3.9823783 0 0 0 0.0078,0.0293 c 0.295359,1.08299 0.72117,2.12517 1.378906,3.08985 a 3.9823783,3.9823783 0 0 0 0.121094,0.16992 c 0.949149,1.24576 2.83425,2.29297 4.546875,2.29297 1.573903,0 3.513301,-0.75175 4.652343,-2.0918 0.862556,-1.01477 1.379153,-2.199 1.677735,-3.37891 0.293683,-1.09569 0.442686,-2.22982 0.472656,-3.39648 0.04635,-0.95554 0.07227,-1.91143 0.07227,-2.86719 a 3.9823783,3.9823783 0 0 0 0,-0.0312 c -0.02345,-3.04834 -0.11733,-5.90826 -0.283204,-8.58594 a 3.9823783,3.9823783 0 0 0 0,-0.002 c -0.07151,-1.1441 -0.168783,-2.29887 -0.287109,-3.46289 -0.001,-0.0122 -9.39e-4,-0.0229 -0.002,-0.0352 -0.07863,-0.94925 -0.183134,-1.8381 -0.294922,-2.71093 z m 173.564452,0 c 1.55813,0.10832 2.99849,0.17187 4.29102,0.17187 0.25219,0 0.44751,-0.01 0.68554,-0.0117 -0.11947,1.10681 -0.24036,2.21244 -0.3457,3.44141 a 3.9823783,3.9823783 0 0 0 -0.004,0.0527 c -0.1183,1.6326 -0.21273,3.34179 -0.2832,5.12696 -0.0709,1.77421 -0.10742,3.54988 -0.10742,5.32422 0,0.62734 0.0139,1.25363 0.0391,1.88085 a 3.9823783,3.9823783 0 0 0 0,0.006 c 0.0207,0.49843 0.0312,0.98445 0.0312,1.45508 0,0.96287 -0.0613,2.11559 -0.18945,3.43946 a 3.9823783,3.9823783 0 0 0 -0.004,0.0644 c -0.0947,1.17469 -0.30637,2.402 -0.64258,3.6875 a 3.9823783,3.9823783 0 0 0 -0.01,0.041 c -0.30356,1.21426 -0.73258,2.4169 -1.29492,3.61914 -0.47592,1.01748 -1.08153,1.88231 -1.86133,2.66211 a 3.9823783,3.9823783 0 0 0 -0.0293,0.0293 c -0.6883,0.70294 -1.54261,1.29047 -2.67969,1.77539 a 3.9823783,3.9823783 0 0 0 -0.0449,0.0195 c -0.94841,0.41842 -2.23166,0.69532 -3.93945,0.69532 -1.48491,0 -2.67354,-0.1959 -3.60352,-0.50977 -1.00805,-0.34803 -1.80591,-0.78827 -2.47656,-1.30664 -0.68369,-0.56848 -1.25191,-1.20936 -1.73242,-1.98438 -0.54582,-0.88034 -0.98506,-1.81996 -1.32617,-2.84179 -0.35692,-1.09217 -0.62207,-2.23923 -0.79688,-3.45313 -0.15999,-1.27212 -0.24023,-2.52708 -0.24023,-3.76758 v -0.37109 c 0.005,-0.10546 0.0804,-0.37894 0.0859,-0.4668 0.0141,-0.22569 0.0156,-0.40911 0.0156,-0.60937 v -1.41211 c 0.0233,-0.71264 0.0352,-1.58492 0.0352,-2.72266 0,-1.42169 -0.0237,-3.00393 -0.0703,-4.7539 v -0.002 c -0.0478,-1.81325 -0.15531,-3.58618 -0.32226,-5.31836 v -0.004 c -0.0752,-0.91452 -0.23163,-1.69565 -0.34766,-2.54102 1.5849,0.10347 3.08039,0.16992 4.44141,0.16992 0.4134,0 0.74865,-0.0109 1.1289,-0.0156 -0.1599,0.95449 -0.32808,1.74323 -0.48437,2.77148 a 3.9823783,3.9823783 0 0 0 -0.004,0.0273 c -0.44861,3.09041 -0.66211,6.54449 -0.66211,10.39062 0,0.95741 0.0395,1.94117 0.11524,2.95117 a 3.9823783,3.9823783 0 0 0 0.01,0.0977 c 0.11018,1.10177 0.29234,2.15863 0.56055,3.17188 a 3.9823783,3.9823783 0 0 0 0.008,0.0293 c 0.29537,1.08299 0.71921,2.12517 1.37696,3.08985 a 3.9823783,3.9823783 0 0 0 0.12304,0.16992 c 0.94916,1.24577 2.83231,2.29297 4.54493,2.29297 1.5739,0 3.51525,-0.75174 4.65429,-2.0918 0.86256,-1.01477 1.3772,-2.199 1.67578,-3.37891 0.29369,-1.09569 0.44464,-2.22982 0.47461,-3.39648 0.0464,-0.95554 0.0723,-1.91143 0.0723,-2.86719 a 3.9823783,3.9823783 0 0 0 0,-0.0312 c -0.0235,-3.04831 -0.11736,-5.90829 -0.2832,-8.58594 a 3.9823783,3.9823783 0 0 0 0,-0.002 c -0.0715,-1.14411 -0.16878,-2.29886 -0.28711,-3.46289 -0.001,-0.0122 -9.4e-4,-0.0229 -0.002,-0.0352 -0.0786,-0.94926 -0.18313,-1.83809 -0.29492,-2.71093 z m -114.908202,0.0351 c 0.811421,0 1.424004,0.11572 1.898438,0.28516 a 3.9823783,3.9823783 0 0 0 0.107421,0.0352 c 0.662352,0.21565 1.170972,0.4748 1.574219,0.75585 a 3.9823783,3.9823783 0 0 0 0.06836,0.0469 c 0.20416,0.13611 0.320938,0.28504 0.488281,0.42578 -1.34116,0.28511 -2.671841,0.83827 -3.59961,1.80469 a 3.9823783,3.9823783 0 0 0 -0.05664,0.0625 c -1.024302,1.11338 -1.67768,2.40622 -2.148438,3.78711 a 3.9823783,3.9823783 0 0 0 -0.01758,0.0527 c -0.43849,1.34679 -0.70629,2.79532 -0.865234,4.38477 a 3.9823783,3.9823783 0 0 0 -0.0039,0.0605 c -0.126026,1.48711 -0.1875,3.07678 -0.1875,4.7793 0,1.08461 0.0675,2.17732 0.201171,3.27344 a 3.9823783,3.9823783 0 0 0 0.01367,0.0937 c 0.174632,1.19331 0.45872,2.34096 0.875,3.42969 a 3.9823783,3.9823783 0 0 0 0.01367,0.0371 c 0.473761,1.20262 1.186626,2.3501 2.16211,3.28125 1.165541,1.11256 2.889803,1.75642 4.457031,1.79687 -0.612027,1.50545 -1.276592,2.77317 -1.994141,3.55859 a 3.9823783,3.9823783 0 0 0 -0.01953,0.0195 c -1.077308,1.19537 -1.779028,1.47461 -2.966797,1.47461 -0.36946,0 -0.919044,-0.0514 -1.611328,-0.19336 -0.428951,-0.088 -0.965761,-0.27958 -1.609375,-0.64063 a 3.9823783,3.9823783 0 0 0 -0.02734,-0.0156 c -0.496949,-0.27333 -1.100475,-0.73107 -1.763672,-1.40625 -0.509743,-0.53928 -1.075349,-1.35305 -1.61914,-2.49219 -0.512866,-1.09657 -0.985014,-2.56179 -1.34961,-4.38477 -0.345663,-1.7511 -0.542968,-3.97361 -0.542968,-6.625 0,-3.58987 0.372672,-6.53579 1.017578,-8.79297 a 3.9823783,3.9823783 0 0 0 0.002,-0.01 c 0.693058,-2.44609 1.550274,-4.2939 2.433594,-5.56055 0.951155,-1.36392 1.862466,-2.1637 2.673828,-2.60742 1.002639,-0.54832 1.757056,-0.7168 2.396484,-0.7168 z m 66.513672,0.45117 c -0.009,0.001 -0.0165,0.005 -0.0254,0.006 -0.008,0.001 -0.0157,6.9e-4 -0.0234,0.002 z m -86.316406,0.0762 c -0.09073,0.34341 -0.224553,0.69625 -0.302735,1.03711 -4.46e-4,0.002 -0.0015,0.004 -0.002,0.006 -0.317646,1.34694 -0.586744,2.71622 -0.80664,4.10546 -0.158675,0.96968 -0.420425,1.88683 -0.78711,2.77735 a 3.9823783,3.9823783 0 0 0 -0.002,0.01 c -0.136433,0.33351 -0.314412,0.7002 -0.539062,1.09766 a 3.9823783,3.9823783 0 0 0 -0.0293,0.0527 c -0.142012,0.26036 -0.343041,0.56489 -0.619141,0.90235 a 3.9823783,3.9823783 0 0 0 -0.01367,0.0156 c -0.219867,0.2716 -0.49122,0.54749 -0.808594,0.82617 -0.243203,0.19472 -0.517305,0.3743 -0.855468,0.53711 a 3.9823783,3.9823783 0 0 0 0.259765,7.28907 c 0.907398,0.35983 1.332253,0.72031 1.476563,0.88867 a 3.9823783,3.9823783 0 0 0 0.04102,0.0488 c 0.374211,0.42249 0.61865,0.84244 0.796875,1.36523 a 3.9823783,3.9823783 0 0 0 0.0098,0.0273 c 0.234478,0.67218 0.418525,1.47488 0.527344,2.41797 a 3.9823783,3.9823783 0 0 0 0,0.008 c 0.144685,1.22982 0.325083,2.52175 0.539062,3.87695 a 3.9823783,3.9823783 0 0 0 0.02148,0.12891 c 0.231342,1.20812 0.52572,2.42105 0.880859,3.63867 a 3.9823783,3.9823783 0 0 0 0.002,0.004 c 0.06254,0.21368 0.160468,0.45928 0.228516,0.67774 -0.171058,-0.001 -0.409062,-0.0254 -0.576172,-0.0254 -1.718435,0 -3.201019,0.0475 -4.496094,0.15039 0.02216,-0.5503 0.07227,-1.0725 0.07227,-1.64649 0,-2.12294 -0.08078,-3.93003 -0.269531,-5.49804 -0.182346,-1.53692 -0.443951,-2.90762 -0.855469,-4.17383 -0.390182,-1.20056 -0.886821,-2.31145 -1.623047,-3.33399 -0.515885,-0.7165 -1.114018,-1.36501 -1.751953,-1.96875 1.736295,-2.2144 3.135152,-4.41613 4.166015,-6.64062 a 3.9823783,3.9823783 0 0 0 0.0078,-0.0156 c 1.076851,-2.35206 1.669922,-4.82554 1.669922,-7.30859 0,-0.38798 -0.119817,-0.76616 -0.152344,-1.15234 0.04335,5e-5 0.08956,0.002 0.132813,0.002 1.226981,0 2.441523,-0.067 3.658203,-0.12695 z m 32.894536,0.27148 c 1.44252,0.0794 2.82486,0.13086 4.0996,0.13086 0.22615,0 0.35312,-0.0143 0.56836,-0.0156 -0.16848,1.24337 -0.33168,2.50653 -0.46679,3.87695 a 3.9823783,3.9823783 0 0 0 -0.004,0.0508 c -0.14212,1.65807 -0.25955,3.40208 -0.35351,5.23437 a 3.9823783,3.9823783 0 0 0 -0.004,0.0488 c -0.071,1.82276 -0.10547,3.68815 -0.10547,5.59766 0,3.59991 0.17799,7.2108 0.53516,10.83008 0.18076,1.83168 0.63431,3.47548 0.94922,5.21484 -0.23132,-0.002 -0.43036,-0.01 -0.67188,-0.01 -1.22131,0 -2.53972,0.0508 -3.94727,0.14257 l 0.0742,-5.13086 a 3.9823783,3.9823783 0 0 0 -2.13086,-3.36328 c 0.1119,-0.28237 0.3468,-0.51204 0.4336,-0.80078 0.35418,-1.10747 0.59609,-2.25192 0.71289,-3.41992 a 3.9823783,3.9823783 0 0 0 0.002,-0.01 c 0.10159,-1.0413 0.15625,-1.99952 0.15625,-2.90039 v -5.58203 c 0,-0.76759 -0.0436,-1.54047 -0.12695,-2.31836 -0.10939,-1.02091 -0.38672,-2.03948 -0.83399,-2.99218 -0.13784,-0.30627 -0.34761,-0.58558 -0.5332,-0.875 a 3.9823783,3.9823783 0 0 0 1.68555,-3.39649 c -0.009,-0.10027 -0.0293,-0.21137 -0.0391,-0.3125 z m -3.470708,1.70703 0.105468,0.0762 c -0.016,-0.012 -0.03468,-0.0136 -0.05078,-0.0254 -0.02008,-0.0144 -0.03446,-0.0366 -0.05469,-0.0508 z m 57.539058,0.67969 -0.0176,0.20703 c 0.003,-0.0308 0.003,-0.061 0.006,-0.0918 0.002,-0.0387 0.01,-0.0765 0.0117,-0.11523 z m -82.441402,10.24219 -0.02734,0.0527 c 0.0083,-0.0147 0.0132,-0.0302 0.02148,-0.0449 0.0016,-0.003 0.0043,-0.005 0.0059,-0.008 z m -1.546875,1.41211 0.04102,0.0488 c -0.0074,-0.009 -0.01799,-0.0129 -0.02539,-0.0215 -0.007,-0.008 -0.0086,-0.0194 -0.01563,-0.0273 z m 0.486328,0.14843 c -0.01045,0.21048 -0.02524,0.41569 -0.0332,0.62891 -0.07296,-0.0961 -0.105805,-0.21664 -0.181641,-0.31055 0.07985,-0.10158 0.137936,-0.21517 0.214844,-0.31836 z m 107.210939,1.91407 c -0.14234,0.28406 -0.45508,0.53639 -0.45508,1.88672 0,-1.06205 0.0486,-0.74035 0.0684,-0.64649 -4.1e-4,0.086 -0.004,0.14454 -0.002,0.10547 0.003,-0.042 -0.0888,-0.0371 0.17187,-0.82031 z m -105.333986,1.98828 0.0098,0.0273 c -0.0012,-0.004 -0.0046,-0.006 -0.0059,-0.01 -0.0019,-0.006 -0.002,-0.012 -0.0039,-0.0176 z m -32.140625,2.66601 -0.0059,0.0625 c 0.0014,-0.0148 5.29e-4,-0.0262 0.002,-0.041 5.79e-4,-0.007 0.0033,-0.0144 0.0039,-0.0215 z m 173.564451,0 -0.006,0.0625 c 0.001,-0.0148 5.3e-4,-0.0262 0.002,-0.041 5.8e-4,-0.007 0.003,-0.0144 0.004,-0.0215 z m -174.427732,5.01953 -0.01172,0.043 c 0.0017,-0.007 0.0022,-0.0129 0.0039,-0.0195 0.002,-0.008 0.0058,-0.0155 0.0078,-0.0234 z m 173.564452,0 -0.0117,0.043 c 0.002,-0.007 0.002,-0.0129 0.004,-0.0195 0.002,-0.008 0.006,-0.0155 0.008,-0.0234 z m -168.61328,7.80665 -0.01953,0.0684 c 0.0049,-0.0157 0.0068,-0.0351 0.01172,-0.0508 0.0019,-0.006 0.0059,-0.0111 0.0078,-0.0176 z m 51.400391,2.91992 -0.01758,0.0195 c 0.0025,-0.003 0.0033,-0.007 0.0059,-0.01 0.0034,-0.004 0.0083,-0.006 0.01172,-0.01 z"
         id="path12" /><path
         style="color:#000000;-inkscape-font-specification:'Spicy Rice';fill:#303345;stroke-linejoin:round;-inkscape-stroke:none;paint-order:stroke markers fill"
         d="m 10.475575,172.32317 q -2.1359607,-0.27561 -4.1341174,-0.37896 -1.9637058,-0.10335 -3.9963135,-0.10335 -5.4777055,0 -11.2310188,1.06798 0.2067058,-0.82683 0.4478627,-1.44694 0.2756078,-0.65457 0.4823137,-1.41249 0.2067059,-0.79238 0.3445098,-1.82591 0.1378039,-1.03352 0.1378039,-2.65272 0,-1.65365 -0.2411569,-3.13504 -0.2411568,-1.51584 -0.7234705,-2.65272 -0.4823137,-1.17134 -1.2057842,-1.86036 -0.6890198,-0.68902 -1.6191958,-0.68902 -1.03353,0 -1.757,0.62012 -0.68902,0.62012 -1.136882,1.6881 -0.413412,1.06798 -0.620118,2.44602 -0.172255,1.37804 -0.172255,2.92833 0,1.55029 0.172255,2.68718 0.206706,1.10243 0.447863,1.92925 0.275608,0.82683 0.516764,1.48139 0.241157,0.62012 0.34451,1.24024 -2.377117,-0.27561 -4.685333,-0.41341 -2.273764,-0.13781 -4.547529,-0.13781 -2.273764,0 -4.58198,0.13781 -2.273765,0.1378 -4.719784,0.41341 2.135961,-6.20118 3.720706,-12.299 1.619196,-6.09782 2.756078,-12.26455 1.136882,-6.16672 1.825902,-12.47125 0.72347,-6.30453 1.06798,-12.91912 2.549372,0.34451 5.581058,0.51677 3.066138,0.1378 6.270078,0.1378 2.7216278,0 5.2710001,-0.1378 2.5838234,-0.13781 4.754235,-0.58567 0.24115685,6.58014 1.24023521,12.95357 0.99907839,6.37343 2.48047039,12.64351 1.5158431,6.23562 3.4450978,12.3679 1.9292548,6.09782 4.0652155,12.12674 z M -8.8169728,145.58921 q -0.068902,-0.65457 -0.4134117,-1.92925 -0.3100588,-1.10243 -0.9301765,-2.89388 -0.620118,-1.82591 -1.825902,-4.68534 -0.275608,1.79145 -0.620117,3.20394 -0.34451,1.37804 -0.654569,2.51492 -0.310059,1.10244 -0.551216,2.03261 -0.206705,0.93018 -0.206705,1.757 0,1.72255 0.792372,2.68718 0.826824,0.93017 1.825902,0.93017 1.06798,0 1.7914507,-1.03352 0.7234706,-1.03353 0.7923725,-2.58383 z M 41.274748,132.18778 q -0.310059,1.5503 -0.585666,3.61735 -0.241157,2.06706 -0.447863,4.47863 -0.172255,2.37712 -0.275608,4.99539 -0.103353,2.58383 -0.103353,5.16765 0,0.86127 0.03445,1.72255 0.03445,0.82682 0.03445,1.6192 0,1.68809 -0.206706,3.82405 -0.172255,2.13596 -0.757921,4.37528 -0.551216,2.20486 -1.550294,4.34082 -0.999079,2.13596 -2.652726,3.78961 -1.619196,1.65365 -3.961862,2.65272 -2.342667,1.03353 -5.546608,1.03353 -2.756078,0 -4.892038,-0.72347 -2.10151,-0.72347 -3.686255,-1.9637 -1.550294,-1.27469 -2.618274,-2.99724 -1.067981,-1.72255 -1.722549,-3.68625 -0.654569,-1.99816 -0.964628,-4.16857 -0.275608,-2.17041 -0.275608,-4.30637 0,-0.51677 0,-0.62012 0.03445,-0.1378 0.03445,-0.17226 0,-0.0345 0.03445,-0.10335 0.03445,-0.10335 0.03445,-0.55121 0,-0.44787 0,-1.41249 0.03445,-0.96463 0.03445,-2.72163 0,-2.06706 -0.0689,-4.65088 -0.0689,-2.61828 -0.310058,-5.09875 -0.206706,-2.51492 -0.620118,-4.54753 -0.4134117,-2.03261 -1.0679803,-2.96278 2.7905293,0.48231 5.2365483,0.65457 2.480471,0.17225 4.513078,0.17225 1.343589,0 2.411569,-0.0345 1.102431,-0.0689 1.894804,-0.1378 0.895725,-0.0689 1.619196,-0.17226 -0.68902,3.3762 -1.343588,7.68257 -0.620118,4.27192 -0.620118,9.81853 0,1.27468 0.103353,2.65272 0.137804,1.37804 0.447863,2.54938 0.310058,1.13688 0.826823,1.8948 0.551216,0.72347 1.378039,0.72347 1.03353,0 1.619196,-0.68902 0.585667,-0.68902 0.861275,-1.79145 0.310058,-1.13688 0.344509,-2.51492 0.0689,-1.37804 0.0689,-2.75608 -0.03445,-4.47863 -0.275607,-8.37159 -0.103353,-1.65364 -0.275608,-3.34174 -0.137804,-1.6881 -0.34451,-3.16949 -0.206706,-1.51584 -0.482314,-2.68718 -0.275608,-1.20578 -0.620117,-1.8948 2.790529,0.48231 5.167646,0.65457 2.377118,0.17225 4.237471,0.17225 1.240235,0 2.204862,-0.0344 0.999079,-0.0689 1.688098,-0.1378 0.826824,-0.0689 1.446941,-0.17226 z m 35.415604,40.72106 q -3.892961,-0.31006 -6.752392,-0.31006 -2.48047,0 -4.203019,0.1378 -1.688098,0.17226 -2.756079,0.34451 -1.240235,0.20671 -1.998156,0.44787 0.275608,-1.757 0.413412,-3.2384 0.137803,-1.48139 0.137803,-3.16949 0,-3.03168 -0.241156,-5.02984 -0.241157,-2.03261 -0.68902,-3.41065 -0.447863,-1.37804 -1.06798,-2.23931 -0.620118,-0.86127 -1.378039,-1.55029 -0.0689,1.24023 -0.103353,2.48047 -0.03445,1.20578 -0.03445,2.48047 0,2.58382 0.275607,5.61551 0.275608,2.99723 1.136883,6.99355 -1.03353,-0.0689 -2.342667,-0.17226 -1.102431,-0.0689 -2.652725,-0.1378 -1.550294,-0.0345 -3.410647,-0.0345 -1.860353,0 -3.961862,0.0689 -2.067059,0.0689 -4.306373,0.27561 0.68902,-1.06799 1.205785,-2.82499 0.551215,-1.75699 0.930176,-3.92741 0.378961,-2.20486 0.620118,-4.68533 0.275607,-2.48047 0.413411,-4.99539 0.172255,-2.54937 0.241157,-4.99539 0.0689,-2.44602 0.0689,-4.58198 0,-2.85943 -0.103353,-5.85667 -0.103353,-2.99723 -0.275608,-5.85667 -0.172254,-2.85943 -0.413411,-5.44325 -0.241157,-2.58382 -0.482314,-4.65088 -0.241157,-2.10151 -0.516765,-3.514 -0.241157,-1.41249 -0.482313,-1.92926 2.204862,0.20671 4.58198,0.20671 2.997235,0 5.925568,-0.27561 2.962784,-0.31006 5.64996,-0.82682 -0.413411,1.20578 -0.757921,3.13504 -0.34451,1.8948 -0.620118,4.23747 -0.241157,2.30821 -0.447863,4.92649 -0.172254,2.58382 -0.310058,5.20209 -0.137804,2.58383 -0.206706,5.02985 -0.03445,2.44602 -0.03445,4.47862 0,1.37804 0.03445,2.48047 0.03445,1.10244 0.103353,1.89481 2.377117,-3.03169 3.686254,-5.85667 1.309138,-2.85943 1.309138,-5.64996 0,-2.65272 -1.412491,-5.37435 1.309138,0.1378 2.687177,0.20671 1.378039,0.0344 2.687176,0.0344 2.48047,0 4.92649,-0.17226 2.446019,-0.2067 4.92649,-0.68902 -0.964628,1.44694 -1.619196,3.23839 -0.620118,1.757 -0.999079,3.41065 -0.447862,1.8948 -0.757921,3.85851 -0.310059,1.8948 -1.033529,3.6518 -0.310059,0.75793 -0.757922,1.5503 -0.413412,0.75792 -1.033529,1.51584 -0.585667,0.72347 -1.343588,1.37804 -0.757922,0.62012 -1.688098,1.06798 1.998156,0.79237 3.031686,1.99816 1.06798,1.20578 1.584745,2.72162 0.516764,1.4814 0.72347,3.27285 0.206706,1.757 0.516765,3.7207 0.310059,1.6192 0.792372,3.27285 0.413412,1.41249 1.03353,3.06613 0.654568,1.6192 1.550294,2.99724 z m 36.724748,-0.51677 q -0.65457,-0.0689 -1.51585,-0.1378 -0.72347,-0.0689 -1.757,-0.10335 -0.99908,-0.0345 -2.20486,-0.0345 -1.72255,0 -3.78961,0.1378 -2.03261,0.1378 -4.203017,0.51676 l 0.137807,-9.68072 q -1.30914,5.13319 -3.858513,7.92372 -2.514921,2.79053 -5.925568,2.79053 -1.06798,0 -2.411569,-0.2756 -1.343588,-0.27561 -2.756078,-1.06798 -1.378039,-0.75793 -2.721627,-2.13597 -1.309137,-1.37803 -2.342667,-3.54845 -1.033529,-2.20486 -1.653647,-5.30545 -0.620117,-3.13504 -0.620117,-7.40696 0,-5.78776 1.171333,-9.88743 1.171333,-4.13412 2.997235,-6.75239 1.825902,-2.61827 4.030765,-3.82406 2.204862,-1.20578 4.306372,-1.20578 1.791451,0 3.238392,0.51676 1.481392,0.48232 2.618274,1.27469 1.136882,0.75792 1.963706,1.72255 0.826823,0.96462 1.343588,1.92925 -0.103353,-1.17133 -0.310059,-2.48047 -0.206706,-1.34359 -0.482313,-2.75608 2.239313,0.44787 4.547533,0.58567 2.30821,0.1378 4.27192,0.1378 2.34266,0 3.7896,-0.10335 0.82683,-0.0344 1.51585,-0.10335 -0.37896,1.72255 -0.68902,3.85851 -0.31006,2.13596 -0.55122,4.58198 -0.2067,2.41157 -0.34451,5.09874 -0.10335,2.65273 -0.10335,5.44326 0,5.20209 0.51676,10.43864 0.51677,5.23655 1.79146,9.85298 z M 99.255743,152.65166 v -5.58106 q 0,-0.93017 -0.103353,-1.8948 -0.103353,-0.96463 -0.482313,-1.757 -0.34451,-0.79237 -1.03353,-1.27469 -0.689019,-0.51676 -1.860353,-0.51676 -1.240235,0 -2.067058,0.86127 -0.792373,0.86128 -1.309137,2.37712 -0.482314,1.48139 -0.68902,3.54845 -0.172255,2.03261 -0.172255,4.44418 0,1.37804 0.172255,2.79053 0.206706,1.41249 0.654569,2.58382 0.447862,1.13688 1.205784,1.86035 0.757921,0.72347 1.860353,0.72347 1.240235,0 1.998156,-0.86127 0.757922,-0.86127 1.136883,-2.13596 0.413411,-1.27469 0.551215,-2.65273 0.137804,-1.41249 0.137804,-2.51492 z M 152.138,172.59878 q -1.06798,-0.17226 -2.34267,-0.24116 -1.27468,-0.0344 -2.65272,-0.0344 -1.65365,0 -3.3762,0.0689 -1.6881,0.10336 -3.30729,0.24116 -1.6192,0.1378 -3.06614,0.31006 -1.44694,0.17225 -2.51492,0.31006 1.48139,-4.99539 2.27376,-10.67981 0.82683,-5.68441 0.82683,-12.60905 0,-0.51677 -0.0344,-1.37804 0,-0.86128 -0.0689,-1.86036 -0.0689,-0.99907 -0.24115,-1.99815 -0.13781,-1.03353 -0.44787,-1.86035 -0.2756,-0.82683 -0.72347,-1.34359 -0.44786,-0.51677 -1.10243,-0.51677 -0.96463,0 -1.8948,0.68902 -0.89573,0.68902 -1.6192,1.8259 -0.68902,1.13689 -1.13688,2.61828 -0.41341,1.48139 -0.41341,3.06613 0,2.85944 0.1378,5.82222 0.13781,2.92833 0.44786,5.82222 0.31006,2.89388 0.79238,5.68441 0.48231,2.75608 1.20578,5.23655 -0.58567,-0.0345 -1.37804,-0.10336 -0.68902,-0.0344 -1.61919,-0.0689 -0.93018,-0.0345 -2.13596,-0.0345 -2.23932,0 -5.16765,0.20671 -2.92833,0.17225 -6.33898,0.68902 0.41341,-1.92926 0.72347,-4.71979 0.31006,-2.79053 0.51676,-6.06337 0.20671,-3.27284 0.31006,-6.82129 0.13781,-3.58291 0.13781,-7.06246 0,-2.58382 -0.0689,-5.06429 -0.0689,-2.48047 -0.20671,-4.68533 -0.10335,-2.20486 -0.31006,-4.06522 -0.20671,-1.86035 -0.48231,-3.20394 2.79053,0.48232 5.16764,0.68902 2.37712,0.17226 4.30638,0.17226 1.24023,0 2.20486,-0.0344 0.99908,-0.0689 1.6881,-0.13781 0.82682,-0.10335 1.44694,-0.2067 -0.20671,1.06798 -0.41341,2.27376 -0.17226,1.20578 -0.34451,2.61827 1.13688,-1.44694 2.41156,-2.51492 1.27469,-1.10243 2.54938,-1.8259 1.30913,-0.72347 2.58382,-1.06798 1.27469,-0.37896 2.41157,-0.37896 2.48047,0 4.27192,1.03353 1.8259,0.99908 2.99723,3.16949 1.20579,2.17041 1.79146,5.54661 0.58566,3.37619 0.58566,8.09598 0,3.23839 0,6.58013 0.0344,3.34175 0.17226,6.54569 0.1378,3.20394 0.48231,6.09782 0.34451,2.85943 0.96463,5.16765 z m 29.76564,-42.51251 q -0.27561,1.5503 -0.41341,3.03169 -0.10335,1.48139 -0.10335,3.03168 0,1.4814 0.10335,2.99724 0.1378,1.48139 0.41341,2.99723 -1.65365,-0.86127 -3.75516,-1.27468 -2.06705,-0.41341 -4.23747,-0.65457 v 2.96278 q 0,3.89296 0.13781,7.88928 0.1378,3.96186 0.44786,7.71702 0.31006,3.7207 0.79237,7.06245 0.51677,3.34174 1.24024,5.92557 -0.58567,-0.0345 -1.37804,-0.10336 -0.68902,-0.0344 -1.6192,-0.0689 -0.93017,-0.0345 -2.13596,-0.0345 -2.23931,0 -5.16764,0.20671 -2.92834,0.17225 -6.33898,0.68902 1.17133,-6.71795 1.65364,-13.95265 0.51677,-7.26916 0.51677,-14.1938 v -4.09967 q -2.34267,0.17225 -4.65088,0.55122 -2.27377,0.34451 -4.30638,0.86127 0.13781,-0.37896 0.24116,-0.99908 0.10335,-0.62012 0.1378,-1.27468 0.0689,-0.65457 0.0689,-1.27469 0.0344,-0.62012 0.0344,-1.03353 0,-1.757 -0.13781,-3.47955 -0.1378,-1.72255 -0.34451,-3.47955 1.65365,0.68902 3.92742,1.13688 2.27376,0.41342 4.61643,0.62012 -0.20671,-2.99723 -0.48232,-5.54661 -0.27561,-2.54937 -0.65457,-4.61643 2.79053,0.48232 5.16765,0.65457 2.37712,0.17226 4.30637,0.17226 1.24024,0 2.20487,-0.0344 0.99907,-0.0689 1.68809,-0.13781 0.82683,-0.0689 1.44694,-0.17225 -0.37896,1.65364 -0.65456,4.13411 -0.24116,2.44602 -0.48232,5.47771 2.27377,-0.24116 4.27192,-0.65457 2.03261,-0.41341 3.4451,-1.03353 z m 32.93513,2.10151 q -0.31006,1.5503 -0.58567,3.61735 -0.24115,2.06706 -0.44786,4.47863 -0.17225,2.37712 -0.27561,4.99539 -0.10335,2.58383 -0.10335,5.16765 0,0.86127 0.0345,1.72255 0.0344,0.82682 0.0344,1.6192 0,1.68809 -0.2067,3.82405 -0.17226,2.13596 -0.75793,4.37528 -0.55121,2.20486 -1.55029,4.34082 -0.99908,2.13596 -2.65272,3.78961 -1.6192,1.65365 -3.96187,2.65272 -2.34266,1.03353 -5.5466,1.03353 -2.75608,0 -4.89204,-0.72347 -2.10151,-0.72347 -3.68626,-1.9637 -1.55029,-1.27469 -2.61827,-2.99724 -1.06798,-1.72255 -1.72255,-3.68625 -0.65457,-1.99816 -0.96463,-4.16857 -0.27561,-2.17041 -0.27561,-4.30637 0,-0.51677 0,-0.62012 0.0345,-0.1378 0.0345,-0.17226 0,-0.0345 0.0345,-0.10335 0.0344,-0.10335 0.0344,-0.55121 0,-0.44787 0,-1.41249 0.0344,-0.96463 0.0344,-2.72163 0,-2.06706 -0.0689,-4.65088 -0.0689,-2.61828 -0.31006,-5.09875 -0.20671,-2.51492 -0.62012,-4.54753 -0.41341,-2.03261 -1.06798,-2.96278 2.79053,0.48231 5.23655,0.65457 2.48047,0.17225 4.51308,0.17225 1.34358,0 2.41156,-0.0345 1.10244,-0.0689 1.89481,-0.1378 0.89572,-0.0689 1.61919,-0.17226 -0.68902,3.3762 -1.34358,7.68257 -0.62012,4.27192 -0.62012,9.81853 0,1.27468 0.10335,2.65272 0.1378,1.37804 0.44786,2.54938 0.31006,1.13688 0.82683,1.8948 0.55121,0.72347 1.37804,0.72347 1.03353,0 1.61919,-0.68902 0.58567,-0.68902 0.86128,-1.79145 0.31006,-1.13688 0.34451,-2.51492 0.0689,-1.37804 0.0689,-2.75608 -0.0345,-4.47863 -0.27561,-8.37159 -0.10335,-1.65364 -0.27561,-3.34174 -0.1378,-1.6881 -0.34451,-3.16949 -0.2067,-1.51584 -0.48231,-2.68718 -0.27561,-1.20578 -0.62012,-1.8948 2.79053,0.48231 5.16765,0.65457 2.37712,0.17225 4.23747,0.17225 1.24023,0 2.20486,-0.0344 0.99908,-0.0689 1.6881,-0.1378 0.82682,-0.0689 1.44694,-0.17226 z m 38.30948,40.411 q -1.06798,-0.17226 -2.34266,-0.24116 -1.27469,-0.0344 -2.65273,-0.0344 -1.65365,0 -3.3762,0.0689 -1.68809,0.10336 -3.30729,0.24116 -1.6192,0.1378 -3.06614,0.31006 -1.44694,0.17225 -2.51492,0.31006 1.48139,-4.99539 2.27377,-10.67981 0.82682,-5.68441 0.82682,-12.60905 0,-0.51677 -0.0344,-1.37804 0,-0.86128 -0.0689,-1.86036 -0.0689,-0.99907 -0.24116,-1.99815 -0.1378,-1.03353 -0.44786,-1.86035 -0.27561,-0.82683 -0.72347,-1.34359 -0.44787,-0.51677 -1.10243,-0.51677 -0.96463,0 -1.89481,0.68902 -0.89572,0.68902 -1.61919,1.8259 -0.68902,1.13689 -1.13689,2.61828 -0.41341,1.48139 -0.41341,3.06613 0,2.85944 0.13781,5.82222 0.1378,2.92833 0.44786,5.82222 0.31006,2.89388 0.79237,5.68441 0.48231,2.75608 1.20579,5.23655 -0.58567,-0.0345 -1.37804,-0.10336 -0.68902,-0.0344 -1.6192,-0.0689 -0.93018,-0.0345 -2.13596,-0.0345 -2.23931,0 -5.16765,0.20671 -2.92833,0.17225 -6.33898,0.68902 0.41341,-1.92926 0.72347,-4.71979 0.31006,-2.79053 0.51677,-6.06337 0.2067,-3.27284 0.31006,-6.82129 0.1378,-3.58291 0.1378,-7.06246 0,-2.58382 -0.0689,-5.06429 -0.0689,-2.48047 -0.20671,-4.68533 -0.10335,-2.20486 -0.31006,-4.06522 -0.2067,-1.86035 -0.48231,-3.20394 2.79053,0.48232 5.16765,0.68902 2.37711,0.17226 4.30637,0.17226 1.24023,0 2.20486,-0.0344 0.99908,-0.0689 1.6881,-0.13781 0.82682,-0.10335 1.44694,-0.2067 -0.2067,1.06798 -0.41341,2.27376 -0.17226,1.20578 -0.34451,2.61827 1.13688,-1.44694 2.41157,-2.51492 1.27468,-1.10243 2.54937,-1.8259 1.30914,-0.72347 2.58382,-1.06798 1.27469,-0.37896 2.41157,-0.37896 2.48047,0 4.27192,1.03353 1.82591,0.99908 2.99724,3.16949 1.20578,2.17041 1.79145,5.54661 0.58567,3.37619 0.58567,8.09598 0,3.23839 0,6.58013 0.0345,3.34175 0.17225,6.54569 0.1378,3.20394 0.48231,6.09782 0.34451,2.85943 0.96463,5.16765 z"
         id="path13" /></g></g></svg>
